<svg xmlns="http://www.w3.org/2000/svg" xmlns:xlink="http://www.w3.org/1999/xlink">
  <symbol id="map-marker-f" viewBox="-5 -1.5 24 24">
    <path d="M7 20.565c-4.667-6.09-7-10.423-7-13a7 7 0 1 1 14 0c0 2.577-2.333 6.91-7 13zm0-9a4 4 0 1 0 0-8 4 4 0 0 0 0 8z" />
  </symbol>
  <symbol id="arrow-left" viewBox="-5 -5 24 24">
    <path d="M3.414 7.657l3.95 3.95A1 1 0 0 1 5.95 13.02L.293 7.364a.997.997 0 0 1 0-1.414L5.95.293a1 1 0 1 1 1.414 1.414l-3.95 3.95H13a1 1 0 0 1 0 2H3.414z" />
  </symbol>
</svg>